<svg width="113" height="47" viewBox="0 0 113 47" fill="none" xmlns="http://www.w3.org/2000/svg">
<path fill-rule="evenodd" clip-rule="evenodd" d="M17.5968 0C27.3155 0 35.1938 7.8783 35.1938 17.597C35.1938 25.661 29.7693 32.4577 22.3702 34.5382L17.5969 46.7021L12.8236 34.5382C5.4245 32.4577 0 25.6611 0 17.597C0 7.8783 7.8783 0 17.5968 0V0ZM17.5969 10.046C21.7671 10.046 25.1478 13.4267 25.1478 17.5969C25.1478 21.7671 21.7671 25.1478 17.5969 25.1478C13.4267 25.1478 10.046 21.7671 10.046 17.5969C10.046 13.4267 13.4267 10.046 17.5969 10.046Z" fill="#4F81A7"/>
<path fill-rule="evenodd" clip-rule="evenodd" d="M34.8092 13.9251C35.0606 15.1096 35.194 16.3376 35.194 17.597C35.194 25.661 29.7695 32.4577 22.3704 34.5382L17.5971 46.7021L12.8238 34.5382C8.99803 33.4624 5.70023 31.1256 3.40723 28.0048C5.73593 25.5714 8.33173 23.3959 11.1462 21.5231C12.4719 23.6966 14.865 25.1478 17.5971 25.1478C21.7673 25.1478 25.148 21.7671 25.148 17.5969C25.148 16.827 25.0324 16.0841 24.8182 15.3843C28.0246 14.5445 31.3687 14.0453 34.8092 13.9251V13.9251Z" fill="#8AACC6"/>
<path d="M41.8463 32.0818V21.9467C41.8463 20.9622 41.8077 19.6398 41.7305 17.9795H44.4235L44.5683 19.6301H44.6262C45.3598 18.3753 46.4698 17.7479 47.9563 17.7479C49.1339 17.7479 50.0316 18.1871 50.6494 19.0654C51.2671 19.9438 51.576 21.2035 51.576 22.8444V32.0818H48.4776V23.134C48.4776 21.2807 47.9274 20.3541 46.827 20.3541C46.4409 20.3541 46.0886 20.5037 45.77 20.8029C45.4515 21.1021 45.2247 21.5317 45.0895 22.0915C44.993 22.4197 44.9448 22.8444 44.9448 23.3656V32.0818H41.8463V32.0818ZM63.0142 23.2498V28.8675C63.0142 30.2768 63.0721 31.3482 63.1879 32.0818H60.408L60.2342 30.6629H60.1763C59.4234 31.7633 58.4292 32.3135 57.1937 32.3135C56.1706 32.3135 55.3211 31.9274 54.6455 31.1552C53.9698 30.383 53.632 29.3791 53.632 28.1436C53.632 26.4448 54.2352 25.161 55.4418 24.2923C56.6484 23.4235 58.13 22.9795 59.8868 22.9602V22.5838C59.8868 20.9235 59.1821 20.0934 57.7729 20.0934C56.8462 20.0934 55.9679 20.3541 55.1377 20.8753L54.5586 18.7614C55.6397 18.0857 56.9331 17.7479 58.4389 17.7479C61.4891 17.7479 63.0142 19.5819 63.0142 23.2498V23.2498ZM59.9736 27.6513V25.0162C57.715 25.0741 56.5856 26.0104 56.5856 27.8251C56.5856 28.5586 56.7401 29.104 57.0489 29.4612C57.3578 29.8183 57.715 29.9969 58.1204 29.9969C58.5258 29.9969 58.8926 29.8569 59.2207 29.577C59.5489 29.2971 59.7709 28.8965 59.8868 28.3753C59.9447 28.1822 59.9736 27.9409 59.9736 27.6513V27.6513ZM64.3462 17.9795H67.6183L69.0083 25.0162C69.182 25.9428 69.3847 27.1783 69.6164 28.7227H69.6743C69.7708 27.9505 69.9639 26.715 70.2535 25.0162L71.6145 17.9795H74.684L70.9484 32.0818H68.1396L64.3462 17.9795V17.9795ZM79.462 32.0818H76.3635V17.9795H79.462V32.0818ZM77.8693 16.0973H77.8403C77.377 16.0973 76.9909 15.9284 76.682 15.5906C76.3732 15.2527 76.2187 14.8232 76.2187 14.302C76.2187 13.7614 76.378 13.3271 76.6965 12.9989C77.0151 12.6707 77.406 12.5066 77.8693 12.5066C78.3712 12.5066 78.7766 12.6707 79.0855 12.9989C79.3944 13.3271 79.5488 13.7614 79.5488 14.302C79.5488 14.8425 79.3944 15.2769 79.0855 15.605C78.7766 15.9332 78.3712 16.0973 77.8693 16.0973V16.0973Z" fill="#4F81A7"/>
<path d="M92.9479 22.4679V30.1417C92.9479 32.0721 92.8562 33.4718 92.6728 34.3405C92.4894 35.2092 92.1853 35.9042 91.7606 36.4254C91.0077 37.3907 89.9459 37.8733 88.5753 37.8733C87.417 37.8733 86.4807 37.6416 85.7664 37.1783L86.1718 36.1358C86.9247 36.5605 87.7741 36.7729 88.7201 36.7729C90.7085 36.7729 91.7027 35.1706 91.7027 31.966V30.1996H91.6448C91.1621 31.4544 90.2452 32.0818 88.8938 32.0818C87.7934 32.0818 86.862 31.4689 86.0994 30.243C85.3369 29.0171 84.9556 27.3135 84.9556 25.132C84.9556 22.661 85.39 20.8463 86.2587 19.688C87.1274 18.5297 88.0927 17.9506 89.1544 17.9506C89.5598 17.9506 89.9122 18.0085 90.2114 18.1243C90.5106 18.2402 90.7664 18.4236 90.9787 18.6745C91.1911 18.9255 91.3359 19.1089 91.4131 19.2247C91.4903 19.3405 91.6062 19.5432 91.7606 19.8328H91.8185L91.8764 18.1822H93.0637C92.9865 20.19 92.9479 21.6185 92.9479 22.4679V22.4679ZM91.7027 27.0143V22.7865C91.7027 22.3232 91.6737 21.9853 91.6158 21.773C91.1718 19.9583 90.332 19.051 89.0965 19.051C88.2278 19.051 87.5376 19.5915 87.0261 20.6726C86.5145 21.7537 86.2587 23.2015 86.2587 25.0162C86.2587 26.9853 86.5338 28.4718 87.084 29.4756C87.6342 30.4795 88.3147 30.9814 89.1255 30.9814C90.3417 30.9814 91.1621 30.1127 91.5869 28.3753C91.6641 28.0278 91.7027 27.5741 91.7027 27.0143V27.0143ZM96.3069 37.6416V22.4679C96.3069 21.6185 96.2683 20.19 96.1911 18.1822H97.3784L97.4363 20.0355H97.4942C98.2085 18.6456 99.193 17.9506 100.448 17.9506C101.548 17.9506 102.465 18.5442 103.199 19.7315C103.932 20.9187 104.299 22.6996 104.299 25.0741C104.299 27.5258 103.894 29.3453 103.083 30.5326C102.272 31.7198 101.288 32.3135 100.129 32.3135C98.9517 32.3135 98.1119 31.7247 97.61 30.5471H97.5521V37.6416H96.3069V37.6416ZM97.5521 23.5104V26.9563C97.5521 27.4583 97.5714 27.8347 97.61 28.0857C97.8417 29.2826 98.1988 30.103 98.6814 30.5471C99.1641 30.9911 99.6563 31.2131 100.158 31.2131C102.05 31.2131 102.996 29.1861 102.996 25.132C102.996 23.4139 102.764 21.9708 102.301 20.8029C101.838 19.6349 101.104 19.051 100.1 19.051C99.4826 19.051 98.9227 19.3985 98.4208 20.0934C97.9189 20.7884 97.639 21.5606 97.5811 22.41C97.5617 22.661 97.5521 23.0278 97.5521 23.5104V23.5104ZM106.008 31.4447L106.471 30.4312C107.166 30.9139 107.861 31.1552 108.556 31.1552C109.289 31.1552 109.873 30.9283 110.308 30.4747C110.742 30.021 110.959 29.4081 110.959 28.6359C110.959 27.9795 110.824 27.4004 110.554 26.8984C110.284 26.3965 109.791 25.8946 109.077 25.3926C108.131 24.717 107.427 24.0944 106.963 23.5249C106.5 22.9554 106.268 22.2652 106.268 21.4544C106.268 20.4313 106.606 19.5915 107.282 18.9351C107.957 18.2788 108.749 17.9506 109.656 17.9506C110.486 17.9506 111.239 18.2016 111.915 18.7035L111.365 19.717C110.786 19.273 110.187 19.051 109.569 19.051C108.932 19.051 108.43 19.2633 108.064 19.688C107.697 20.1127 107.513 20.6147 107.513 21.1938C107.513 21.773 107.639 22.2556 107.89 22.6417C108.141 23.0278 108.614 23.4815 109.309 24.0027C109.753 24.3309 110.1 24.5963 110.351 24.799C110.602 25.0017 110.897 25.2865 111.234 25.6533C111.572 26.0201 111.823 26.4206 111.987 26.855C112.151 27.2894 112.233 27.7671 112.233 28.2884C112.233 29.5818 111.872 30.5664 111.148 31.242C110.424 31.9177 109.54 32.2555 108.498 32.2555C107.475 32.2555 106.645 31.9853 106.008 31.4447V31.4447Z" fill="white"/>
</svg>
