<svg width="23" height="18" viewBox="0 0 23 18" fill="none" xmlns="http://www.w3.org/2000/svg">
<path d="M22.9614 2.11613C22.1433 2.475 21.2716 2.71288 20.3627 2.82838C21.2977 2.27013 22.0113 1.39287 22.3468 0.3355C21.475 0.85525 20.5126 1.22238 19.4868 1.42725C18.6591 0.545875 17.4793 0 16.1923 0C13.6953 0 11.6851 2.02675 11.6851 4.51137C11.6851 4.86888 11.7153 5.21263 11.7896 5.53988C8.03993 5.357 4.72205 3.55988 2.49318 0.82225C2.10405 1.49738 1.8758 2.27012 1.8758 3.102C1.8758 4.664 2.68018 6.04862 3.87918 6.85025C3.15455 6.8365 2.44368 6.62613 1.84143 6.29475C1.84143 6.3085 1.84143 6.32638 1.84143 6.34425C1.84143 8.536 3.4048 10.3565 5.45493 10.7759C5.0878 10.8763 4.68768 10.9244 4.27243 10.9244C3.98368 10.9244 3.69218 10.9079 3.41855 10.8474C4.00293 12.6335 5.66118 13.9466 7.63293 13.9893C6.09843 15.1896 4.15005 15.9129 2.0408 15.9129C1.67093 15.9129 1.31618 15.8964 0.961426 15.851C2.9593 17.1394 5.32705 17.875 7.88043 17.875C16.1799 17.875 20.7174 11 20.7174 5.04075C20.7174 4.84137 20.7106 4.64887 20.7009 4.45775C21.5961 3.8225 22.3482 3.02913 22.9614 2.11613Z" fill="white"/>
</svg>
