<svg width="118" height="79" viewBox="0 0 118 79" fill="none" xmlns="http://www.w3.org/2000/svg">
<g clip-path="url(#clip0_2_417)">
<path d="M0.169922 9.84421C0.169922 4.4074 4.56611 0 9.98908 0H108.181C113.604 0 118 4.4074 118 9.84421V68.9095C118 74.3463 113.604 78.7537 108.181 78.7537H9.98908C4.56611 78.7537 0.169922 74.3463 0.169922 68.9095V9.84421Z" fill="#D8E3F3"/>
<path d="M101.577 24.6967H95.4043C93.5381 24.6967 92.1026 25.2724 91.2412 27.1434L79.4697 54.0566H87.7959C87.7959 54.0566 89.2315 50.4586 89.5186 49.5951C90.3799 49.5951 98.5625 49.5951 99.711 49.5951C99.9981 50.6025 100.716 53.9127 100.716 53.9127H108.181L101.577 24.6967ZM91.8154 43.5504C92.5332 41.8233 94.9737 35.3469 94.9737 35.3469C94.9737 35.4908 95.6914 33.6198 95.9785 32.6124L96.5528 35.203C96.5528 35.203 98.1319 42.2551 98.419 43.6943H91.8154V43.5504Z" fill="#3362AB"/>
<path d="M80.044 44.414C80.044 50.4587 74.5889 54.4885 66.1192 54.4885C62.5303 54.4885 59.085 53.7689 57.2188 52.9054L58.3672 46.285L59.3721 46.7167C61.9561 47.8681 63.6787 48.2999 66.8369 48.2999C69.1338 48.2999 71.5743 47.4363 71.5743 45.4215C71.5743 44.1262 70.5694 43.2626 67.4112 41.8234C64.3965 40.3842 60.377 38.0815 60.377 33.9078C60.377 28.1509 65.9756 24.265 73.8711 24.265C76.8858 24.265 79.4698 24.8407 81.0489 25.5603L79.9004 31.8929L79.3262 31.3172C77.8907 30.7415 76.0245 30.1658 73.2969 30.1658C70.2823 30.3097 68.8467 31.605 68.8467 32.7564C68.8467 34.0517 70.5694 35.0591 73.2969 36.3544C77.8907 38.5132 80.044 40.9599 80.044 44.414Z" fill="#3362AB"/>
<path d="M9.98901 24.9847L10.1326 24.4091H22.4783C24.201 24.4091 25.4929 24.9847 25.9236 26.8557L28.6512 39.8086C25.9236 32.9004 19.6072 27.2875 9.98901 24.9847Z" fill="#F9B50B"/>
<path d="M46.0213 24.6968L33.532 53.9128H25.0623L17.8845 29.4462C23.0525 32.7564 27.3592 37.9376 28.9383 41.5356L29.7996 44.5579L37.5516 24.5529H46.0213V24.6968Z" fill="#3362AB"/>
<path d="M49.3233 24.5529H57.2188L52.1943 53.9128H44.2988L49.3233 24.5529Z" fill="#3362AB"/>
</g>
<defs>
<clipPath id="clip0_2_417">
<rect width="117.83" height="78.7537" fill="white" transform="translate(0.169922)"/>
</clipPath>
</defs>
</svg>
