<svg width="113" height="47" viewBox="0 0 113 47" fill="none" xmlns="http://www.w3.org/2000/svg">
<path fill-rule="evenodd" clip-rule="evenodd" d="M17.5968 0C27.3155 0 35.1938 7.8783 35.1938 17.597C35.1938 25.661 29.7693 32.4577 22.3702 34.5382L17.5969 46.7021L12.8236 34.5382C5.4245 32.4577 0 25.6611 0 17.597C0 7.8783 7.8783 0 17.5968 0ZM17.5969 10.046C21.7671 10.046 25.1478 13.4267 25.1478 17.5969C25.1478 21.7671 21.7671 25.1478 17.5969 25.1478C13.4267 25.1478 10.046 21.7671 10.046 17.5969C10.046 13.4267 13.4267 10.046 17.5969 10.046Z" fill="#4F81A7"/>
<path fill-rule="evenodd" clip-rule="evenodd" d="M34.8092 13.925C35.0606 15.1095 35.194 16.3375 35.194 17.5969C35.194 25.6609 29.7695 32.4576 22.3704 34.5381L17.5971 46.702L12.8238 34.5381C8.99803 33.4623 5.70023 31.1255 3.40723 28.0047C5.73593 25.5713 8.33173 23.3958 11.1462 21.523C12.4719 23.6965 14.865 25.1477 17.5971 25.1477C21.7673 25.1477 25.148 21.767 25.148 17.5968C25.148 16.8269 25.0324 16.084 24.8182 15.3842C28.0246 14.5444 31.3687 14.0452 34.8092 13.925Z" fill="#8AACC6"/>
<path d="M41.8463 32.0818V21.9467C41.8463 20.9622 41.8077 19.6398 41.7305 17.9795H44.4235L44.5683 19.6301H44.6262C45.3598 18.3753 46.4698 17.7479 47.9563 17.7479C49.1339 17.7479 50.0316 18.1871 50.6494 19.0654C51.2671 19.9438 51.576 21.2035 51.576 22.8444V32.0818H48.4776V23.134C48.4776 21.2807 47.9274 20.3541 46.827 20.3541C46.4409 20.3541 46.0886 20.5037 45.77 20.8029C45.4515 21.1021 45.2247 21.5317 45.0895 22.0915C44.993 22.4197 44.9448 22.8444 44.9448 23.3656V32.0818H41.8463ZM63.0142 23.2498V28.8675C63.0142 30.2768 63.0721 31.3482 63.1879 32.0818H60.408L60.2342 30.6629H60.1763C59.4234 31.7633 58.4292 32.3135 57.1937 32.3135C56.1706 32.3135 55.3211 31.9274 54.6455 31.1552C53.9698 30.383 53.632 29.3791 53.632 28.1436C53.632 26.4448 54.2352 25.161 55.4418 24.2923C56.6484 23.4235 58.13 22.9795 59.8868 22.9602V22.5838C59.8868 20.9235 59.1821 20.0934 57.7729 20.0934C56.8462 20.0934 55.9679 20.3541 55.1377 20.8753L54.5586 18.7614C55.6397 18.0857 56.9331 17.7479 58.4389 17.7479C61.4891 17.7479 63.0142 19.5819 63.0142 23.2498ZM59.9736 27.6513V25.0162C57.715 25.0741 56.5856 26.0104 56.5856 27.8251C56.5856 28.5586 56.7401 29.104 57.0489 29.4612C57.3578 29.8183 57.715 29.9969 58.1204 29.9969C58.5258 29.9969 58.8926 29.8569 59.2207 29.577C59.5489 29.2971 59.7709 28.8965 59.8868 28.3753C59.9447 28.1822 59.9736 27.9409 59.9736 27.6513ZM64.3462 17.9795H67.6183L69.0083 25.0162C69.182 25.9428 69.3847 27.1783 69.6164 28.7227H69.6743C69.7708 27.9505 69.9639 26.715 70.2535 25.0162L71.6145 17.9795H74.684L70.9484 32.0818H68.1396L64.3462 17.9795ZM79.462 32.0818H76.3635V17.9795H79.462V32.0818ZM77.8693 16.0973H77.8403C77.377 16.0973 76.9909 15.9284 76.682 15.5906C76.3732 15.2527 76.2187 14.8232 76.2187 14.302C76.2187 13.7614 76.378 13.3271 76.6965 12.9989C77.0151 12.6707 77.406 12.5066 77.8693 12.5066C78.3712 12.5066 78.7766 12.6707 79.0855 12.9989C79.3944 13.3271 79.5488 13.7614 79.5488 14.302C79.5488 14.8425 79.3944 15.2769 79.0855 15.605C78.7766 15.9332 78.3712 16.0973 77.8693 16.0973Z" fill="#4F81A7"/>
<path d="M92.9479 22.468V30.1418C92.9479 32.0722 92.8562 33.4719 92.6728 34.3406C92.4894 35.2093 92.1853 35.9043 91.7606 36.4255C91.0077 37.3908 89.9459 37.8734 88.5753 37.8734C87.417 37.8734 86.4807 37.6417 85.7664 37.1784L86.1718 36.1359C86.9247 36.5606 87.7741 36.773 88.7201 36.773C90.7085 36.773 91.7027 35.1707 91.7027 31.9661V30.1997H91.6448C91.1621 31.4545 90.2452 32.0819 88.8938 32.0819C87.7934 32.0819 86.862 31.469 86.0994 30.2431C85.3369 29.0172 84.9556 27.3136 84.9556 25.1321C84.9556 22.6611 85.39 20.8464 86.2587 19.6881C87.1274 18.5298 88.0927 17.9507 89.1544 17.9507C89.5598 17.9507 89.9122 18.0086 90.2114 18.1244C90.5106 18.2403 90.7664 18.4237 90.9787 18.6746C91.1911 18.9256 91.3359 19.109 91.4131 19.2248C91.4903 19.3406 91.6062 19.5433 91.7606 19.8329H91.8185L91.8764 18.1823H93.0637C92.9865 20.1901 92.9479 21.6186 92.9479 22.468ZM91.7027 27.0144V22.7866C91.7027 22.3233 91.6737 21.9854 91.6158 21.7731C91.1718 19.9584 90.332 19.0511 89.0965 19.0511C88.2278 19.0511 87.5376 19.5916 87.0261 20.6727C86.5145 21.7538 86.2587 23.2016 86.2587 25.0163C86.2587 26.9854 86.5338 28.4719 87.084 29.4757C87.6342 30.4796 88.3147 30.9815 89.1255 30.9815C90.3417 30.9815 91.1621 30.1128 91.5869 28.3754C91.6641 28.0279 91.7027 27.5742 91.7027 27.0144ZM96.3069 37.6417V22.468C96.3069 21.6186 96.2683 20.1901 96.1911 18.1823H97.3784L97.4363 20.0356H97.4942C98.2085 18.6457 99.193 17.9507 100.448 17.9507C101.548 17.9507 102.465 18.5443 103.199 19.7316C103.932 20.9188 104.299 22.6997 104.299 25.0742C104.299 27.5259 103.894 29.3454 103.083 30.5327C102.272 31.7199 101.288 32.3136 100.129 32.3136C98.9517 32.3136 98.1119 31.7248 97.61 30.5472H97.5521V37.6417H96.3069ZM97.5521 23.5105V26.9564C97.5521 27.4584 97.5714 27.8348 97.61 28.0858C97.8417 29.2827 98.1988 30.1031 98.6814 30.5472C99.1641 30.9912 99.6563 31.2132 100.158 31.2132C102.05 31.2132 102.996 29.1862 102.996 25.1321C102.996 23.414 102.764 21.9709 102.301 20.803C101.838 19.635 101.104 19.0511 100.1 19.0511C99.4826 19.0511 98.9227 19.3986 98.4208 20.0935C97.9189 20.7885 97.639 21.5607 97.5811 22.4101C97.5617 22.6611 97.5521 23.0279 97.5521 23.5105ZM106.008 31.4448L106.471 30.4313C107.166 30.914 107.861 31.1553 108.556 31.1553C109.289 31.1553 109.873 30.9284 110.308 30.4748C110.742 30.0211 110.959 29.4082 110.959 28.636C110.959 27.9796 110.824 27.4005 110.554 26.8985C110.284 26.3966 109.791 25.8947 109.077 25.3927C108.131 24.7171 107.427 24.0945 106.963 23.525C106.5 22.9555 106.268 22.2653 106.268 21.4545C106.268 20.4314 106.606 19.5916 107.282 18.9352C107.957 18.2789 108.749 17.9507 109.656 17.9507C110.486 17.9507 111.239 18.2017 111.915 18.7036L111.365 19.7171C110.786 19.2731 110.187 19.0511 109.569 19.0511C108.932 19.0511 108.43 19.2634 108.064 19.6881C107.697 20.1128 107.513 20.6148 107.513 21.1939C107.513 21.7731 107.639 22.2557 107.89 22.6418C108.141 23.0279 108.614 23.4816 109.309 24.0028C109.753 24.331 110.1 24.5964 110.351 24.7991C110.602 25.0018 110.897 25.2866 111.234 25.6534C111.572 26.0202 111.823 26.4207 111.987 26.8551C112.151 27.2895 112.233 27.7672 112.233 28.2885C112.233 29.5819 111.872 30.5665 111.148 31.2421C110.424 31.9178 109.54 32.2556 108.498 32.2556C107.475 32.2556 106.645 31.9854 106.008 31.4448Z" fill="#333333"/>
</svg>
