<svg width="118" height="79" viewBox="0 0 118 79" fill="none" xmlns="http://www.w3.org/2000/svg">
<g clip-path="url(#clip0_2_416)">
<path d="M0.0849609 9.84421C0.0849609 4.4074 4.48115 0 9.90412 0H108.096C113.519 0 117.915 4.4074 117.915 9.84421V68.9095C117.915 74.3463 113.519 78.7537 108.096 78.7537H9.90412C4.48115 78.7537 0.0849609 74.3463 0.0849609 68.9095V9.84421Z" fill="#FDEACE"/>
<path d="M71.2968 16.0642L45.938 16.1522L46.7031 62.6897L72.0619 62.6017L71.2968 16.0642Z" fill="#FF5F00"/>
<path d="M47.6079 39.5143C47.4517 30.049 51.682 21.6386 58.3077 16.1831C53.3071 12.2494 47.0379 9.88402 40.2417 9.9075C24.1412 9.96312 11.334 23.2596 11.6043 39.6387C11.8747 56.0178 25.1194 69.2242 41.2199 69.1686C48.0161 69.1451 54.2065 66.7367 59.0766 62.7689C52.273 57.4421 47.7641 48.9796 47.6079 39.5143Z" fill="#EB001B"/>
<path d="M106.396 39.1152C106.666 55.4943 93.8586 68.7907 77.7581 68.8463C70.962 68.8698 64.6927 66.5044 59.6922 62.5708C66.3987 57.115 70.5482 48.7049 70.392 39.2396C70.2357 29.7742 65.7282 21.394 58.9232 15.985C63.7933 12.0172 69.9838 9.60874 76.7799 9.58526C92.8804 9.52964 106.127 22.8184 106.396 39.1152Z" fill="#F79E1B"/>
</g>
<defs>
<clipPath id="clip0_2_416">
<rect width="117.83" height="78.7537" fill="white" transform="translate(0.0849609)"/>
</clipPath>
</defs>
</svg>
