<svg width="118" height="79" viewBox="0 0 118 79" fill="none" xmlns="http://www.w3.org/2000/svg">
<g clip-path="url(#clip0_2_415)">
<path d="M0 9.84421C0 4.4074 4.39619 0 9.81916 0H108.011C113.434 0 117.83 4.4074 117.83 9.84421V68.9095C117.83 74.3463 113.434 78.7537 108.011 78.7537H9.81916C4.39619 78.7537 0 74.3463 0 68.9095V9.84421Z" fill="#CCDEFF"/>
<path d="M26.44 28.345C25.2093 27.4967 23.6033 27.0716 21.622 27.0716H13.9515C13.3441 27.0716 13.0085 27.3761 12.9448 27.9846L9.82887 47.5939C9.79649 47.7865 9.84455 47.9626 9.97262 48.1228C10.1 48.2832 10.2601 48.363 10.4519 48.363H14.0954C14.7344 48.363 15.0857 48.0592 15.1501 47.4499L16.0129 42.1633C16.0444 41.9071 16.1568 41.6988 16.3486 41.5384C16.5403 41.3782 16.78 41.2735 17.0677 41.2256C17.3553 41.178 17.6266 41.1539 17.8827 41.1539C18.1381 41.1539 18.4416 41.1702 18.7937 41.2021C19.145 41.234 19.3689 41.2497 19.4648 41.2497C22.2132 41.2497 24.3705 40.4733 25.9368 38.9187C27.5024 37.365 28.2861 35.2104 28.2861 32.4542C28.2861 30.5637 27.6702 29.1941 26.44 28.3446V28.345ZM22.4852 34.2331C22.3249 35.3547 21.9099 36.0913 21.2388 36.4439C20.5675 36.7969 19.6087 36.9726 18.3625 36.9726L16.7803 37.0205L17.5955 31.8777C17.6591 31.5255 17.8667 31.3493 18.2186 31.3493H19.1297C20.4075 31.3493 21.3349 31.5339 21.9102 31.9018C22.4852 32.2705 22.677 33.0478 22.4852 34.2331Z" fill="#003087"/>
<path d="M107.387 27.0716H103.84C103.487 27.0716 103.28 27.2479 103.216 27.6006L100.1 47.5948L100.052 47.6908C100.052 47.8518 100.116 48.0033 100.244 48.1476C100.371 48.2915 100.532 48.3637 100.723 48.3637H103.888C104.494 48.3637 104.83 48.0599 104.895 47.4506L108.011 27.7929V27.7451C108.01 27.2963 107.802 27.0722 107.387 27.0722V27.0716Z" fill="#009CDE"/>
<path d="M64.5286 34.8103C64.5286 34.6505 64.4644 34.498 64.3373 34.3542C64.2091 34.2101 64.0652 34.1375 63.9058 34.1375H60.2144C59.8621 34.1375 59.5745 34.2985 59.3512 34.618L54.2696 42.1161L52.1602 34.9067C51.9996 34.3944 51.6485 34.1375 51.1056 34.1375H47.5095C47.3493 34.1375 47.2056 34.2098 47.0785 34.3542C46.9503 34.498 46.8867 34.6508 46.8867 34.8103C46.8867 34.8748 47.1984 35.8197 47.8215 37.6461C48.4445 39.473 49.1157 41.4437 49.8349 43.5585C50.5541 45.673 50.9293 46.7951 50.9614 46.9221C48.3405 50.5114 47.0306 52.4338 47.0306 52.6898C47.0306 53.1067 47.238 53.3147 47.6538 53.3147H51.3452C51.6966 53.3147 51.9841 53.1549 52.2083 52.8343L64.4333 35.1466C64.4968 35.0831 64.5286 34.9715 64.5286 34.8102V34.8103Z" fill="#003087"/>
<path d="M98.9022 34.1377H95.2587C94.8107 34.1377 94.5401 34.6665 94.4441 35.7241C93.6121 34.4428 92.095 33.8012 89.8893 33.8012C87.5883 33.8012 85.6304 34.6665 84.0168 36.3968C82.4026 38.1271 81.5959 40.1624 81.5959 42.5012C81.5959 44.392 82.1472 45.8978 83.2496 47.0189C84.3522 48.1411 85.8302 48.7012 87.6845 48.7012C88.6112 48.7012 89.554 48.5086 90.5128 48.1244C91.4715 47.7399 92.2219 47.2275 92.7663 46.5864C92.7663 46.6186 92.7336 46.7623 92.6705 47.0185C92.6058 47.2753 92.5743 47.4682 92.5743 47.5952C92.5743 48.1085 92.7815 48.3641 93.1977 48.3641H96.5058C97.1123 48.3641 97.4643 48.0603 97.5598 47.4511L99.5257 34.9066C99.5572 34.7141 99.5094 34.5383 99.3818 34.3779C99.2533 34.218 99.0939 34.1377 98.9022 34.1377ZM92.6461 43.6065C91.8311 44.4076 90.8482 44.8079 89.6977 44.8079C88.7705 44.8079 88.0201 44.552 87.4445 44.039C86.8689 43.5275 86.5813 42.8225 86.5813 41.9243C86.5813 40.7396 86.9809 39.7374 87.7802 38.9204C88.5781 38.1033 89.5698 37.6949 90.7523 37.6949C91.6465 37.6949 92.3897 37.9592 92.9815 38.4876C93.5722 39.0165 93.8688 39.7455 93.8688 40.6749C93.8685 41.8283 93.461 42.8059 92.6461 43.6065Z" fill="#009CDE"/>
<path d="M44.4416 34.1377H40.798C40.3499 34.1377 40.0788 34.6665 39.9828 35.7241C39.1199 34.4428 37.6017 33.8012 35.4284 33.8012C33.1273 33.8012 31.1694 34.6665 29.5556 36.3968C27.9414 38.1271 27.1348 40.1624 27.1348 42.5012C27.1348 44.392 27.6862 45.8978 28.7888 47.0189C29.8915 48.1411 31.3693 48.7012 33.2232 48.7012C34.1177 48.7012 35.0451 48.5086 36.0037 48.1244C36.9625 47.7399 37.7296 47.2275 38.3049 46.5864C38.1767 46.9706 38.1131 47.3071 38.1131 47.5952C38.1131 48.1085 38.3207 48.3641 38.7363 48.3641H42.0441C42.6509 48.3641 43.0029 48.0603 43.0989 47.4511L45.0643 34.9066C45.0958 34.7141 45.0481 34.5383 44.9206 34.3779C44.7927 34.218 44.6331 34.1377 44.4416 34.1377ZM38.1853 43.6303C37.3701 44.4163 36.3709 44.8079 35.1891 44.8079C34.2617 44.8079 33.5187 44.552 32.9598 44.039C32.4002 43.5275 32.1207 42.8225 32.1207 41.9243C32.1207 40.7396 32.52 39.7374 33.3194 38.9204C34.1178 38.1033 35.1087 37.6948 36.2917 37.6948C37.1861 37.6948 37.9292 37.9592 38.521 38.4876C39.1118 39.0165 39.4078 39.7455 39.4078 40.6749C39.4077 41.8605 39.0003 42.8461 38.1853 43.6303Z" fill="#003087"/>
<path d="M80.9007 28.345C79.6701 27.4967 78.0646 27.0716 76.0828 27.0716H68.4601C67.8208 27.0716 67.469 27.3761 67.4055 27.9846L64.2893 47.5939C64.2569 47.7865 64.305 47.9626 64.4332 48.1227C64.56 48.2832 64.7206 48.3629 64.9124 48.3629H68.8433C69.2268 48.3629 69.4823 48.1549 69.6106 47.7383L70.4735 42.1633C70.5053 41.9071 70.6171 41.6988 70.8092 41.5383C71.001 41.3782 71.2405 41.2735 71.5284 41.2256C71.8157 41.178 72.087 41.1539 72.3433 41.1539C72.5988 41.1539 72.9022 41.1702 73.254 41.2021C73.6054 41.2339 73.8299 41.2497 73.9251 41.2497C76.6741 41.2497 78.8309 40.4732 80.3972 38.9187C81.9634 37.365 82.7463 35.2104 82.7463 32.4541C82.7465 30.5637 82.1309 29.1939 80.9007 28.3445V28.345ZM75.987 36.2514C75.2838 36.7319 74.2289 36.9721 72.823 36.9721L71.2887 37.0203L72.1037 31.8774C72.167 31.5254 72.3748 31.3488 72.7268 31.3488H73.5894C74.2926 31.3488 74.8518 31.381 75.2679 31.4449C75.6826 31.5092 76.0828 31.7092 76.4663 32.0454C76.8501 32.382 77.0416 32.8709 77.0416 33.5114C77.0416 34.8577 76.6896 35.7704 75.987 36.2514Z" fill="#009CDE"/>
</g>
<defs>
<clipPath id="clip0_2_415">
<rect width="117.83" height="78.7537" fill="white"/>
</clipPath>
</defs>
</svg>
