<svg width="36" height="37" viewBox="0 0 36 37" fill="none" xmlns="http://www.w3.org/2000/svg">
<path d="M13.5 33.9166C14.3284 33.9166 15 33.2264 15 32.3749C15 31.5235 14.3284 30.8333 13.5 30.8333C12.6716 30.8333 12 31.5235 12 32.3749C12 33.2264 12.6716 33.9166 13.5 33.9166Z" stroke="#0077C0" stroke-width="2" stroke-linecap="round" stroke-linejoin="round"/>
<path d="M30 33.9166C30.8284 33.9166 31.5 33.2264 31.5 32.3749C31.5 31.5235 30.8284 30.8333 30 30.8333C29.1716 30.8333 28.5 31.5235 28.5 32.3749C28.5 33.2264 29.1716 33.9166 30 33.9166Z" stroke="#0077C0" stroke-width="2" stroke-linecap="round" stroke-linejoin="round"/>
<path d="M1.5 1.54175H7.5L11.52 22.1847C11.6572 22.8944 12.0329 23.532 12.5813 23.9858C13.1298 24.4396 13.816 24.6806 14.52 24.6667H29.1C29.804 24.6806 30.4902 24.4396 31.0387 23.9858C31.5871 23.532 31.9628 22.8944 32.1 22.1847L34.5 9.25008H9" stroke="#0077C0" stroke-width="2" stroke-linecap="round" stroke-linejoin="round"/>
</svg>
